<svg xmlns="http://www.w3.org/2000/svg" width="64" height="64" fill="none"><rect width="64" height="64" fill="#0D883C" rx="32"/><path fill="#fff" fill-rule="evenodd" d="m32.022 15 12.209 5.939-2.386 1.203-8.127-2.198c-.488-.313-1.129-.437-1.696-.437-.52 0-1.081.102-1.544.348-.454.242-.836.65-.836 1.193 0 .544.382.95.836 1.193.463.246 1.024.348 1.544.348.22 0 .44-.018.656-.055l5.462 1.477-6.118 3.085-12.209-6.157L32.022 15Zm0 22.878h1.663c.402 0 .73.33.73.73v.001c0 .402-.328.73-.73.73h-3.326a.733.733 0 0 1-.73-.73c0-.402.328-.73.73-.73h1.663Zm2.092 2.432c-.169 1.022-1.041 1.802-2.092 1.802-1.052 0-1.924-.78-2.093-1.803h4.185Zm5.424-7.3 5.092 5.02c.198.195.27.46.2.73a.738.738 0 0 1-.53.538l-5.482 1.51 4.11-2.318-.456-.739c-4.285 1.632-7.216 4.148-7.216 4.148 1.294-2.828 6.273-5.671 6.273-5.671l-1.99-3.217Zm5.429 7.377c-1.122.06-7.104.528-11.529 3.836 0 0 6.764-2.206 12.736-1.464a.334.334 0 0 0 .335-.165.334.334 0 0 0-.018-.372l-1.23-1.695a.331.331 0 0 0-.294-.14Z" clip-rule="evenodd"/><path fill="#fff" fill-rule="evenodd" d="M32.022 48c1.166 0 2.145-1.307 2.145-1.307 3.96-1.98 10.069-1.416 12.152-1.147a.622.622 0 0 0 .506-.154.622.622 0 0 0 .218-.483v-.1a.64.64 0 0 0-.575-.639c-1.988-.21-8.67-.72-12.75 1.319 0 0-.53 1.098-1.696 1.098s-1.697-1.098-1.697-1.098c-4.08-2.04-10.762-1.528-12.75-1.319a.64.64 0 0 0-.575.639v.1c0 .191.074.356.218.483a.622.622 0 0 0 .507.154c2.083-.269 8.192-.833 12.151 1.147 0 0 .98 1.307 2.146 1.307Zm0-19.504-6.756-3.406c-1.373 6.74 4.417 7.884 4.417 12.128h4.679c0-4.244 5.788-5.388 4.416-12.128l-6.756 3.406Zm-7.516 4.514-5.092 5.02a.738.738 0 0 0-.201.73.74.74 0 0 0 .53.538l5.483 1.51-4.11-2.318.456-.739c4.285 1.632 7.215 4.148 7.215 4.148-1.293-2.828-6.272-5.671-6.272-5.671l1.99-3.217Z" clip-rule="evenodd"/><path fill="#fff" fill-rule="evenodd" d="M19.076 40.387c1.123.06 7.104.528 11.529 3.836 0 0-6.764-2.206-12.736-1.464a.334.334 0 0 1-.335-.165.334.334 0 0 1 .018-.372l1.231-1.695a.331.331 0 0 1 .293-.14Z" clip-rule="evenodd"/><path fill="#fff" fill-rule="evenodd" stroke="#fff" stroke-miterlimit="2.613" stroke-width=".9" d="M32.022 20.093c.595 0 1.122.154 1.448.391l9.875 2.671v5.134a2.073 2.073 0 0 0-1.306 0v-3.83l-9.34-2.527a3.2 3.2 0 0 1-.677.07c-.99 0-1.794-.427-1.794-.954 0-.528.803-.955 1.794-.955Z" clip-rule="evenodd"/><path fill="#fff" d="M43.823 31.393a1.6 1.6 0 1 0-2.264-2.264 1.6 1.6 0 0 0 2.264 2.264Z"/></svg>